<?xml version="1.0" standalone="no"?>
<!DOCTYPE svg PUBLIC "-//W3C//DTD SVG 20010904//EN"
 "http://www.w3.org/TR/2001/REC-SVG-20010904/DTD/svg10.dtd">
<svg version="1.0" xmlns="http://www.w3.org/2000/svg"
 width="119.000000pt" height="119.000000pt" viewBox="0 0 119.000000 119.000000"
 preserveAspectRatio="xMidYMid meet">

<g transform="translate(0.000000,119.000000) scale(0.100000,-0.100000)"
fill="#000000" stroke="none">
<path d="M194 945 c4 -11 -3 -15 -27 -16 -31 -1 -31 -1 -7 -10 21 -7 20 -8
-12 -6 l-38 3 0 -278 0 -277 33 -5 c17 -3 108 -19 201 -36 92 -16 177 -30 187
-30 18 0 19 12 19 274 l0 274 -47 10 c-27 6 -97 18 -158 28 -76 12 -102 20
-85 24 14 4 32 3 40 -1 22 -11 141 -31 148 -25 3 3 11 1 19 -5 7 -6 22 -9 33
-6 11 3 20 1 20 -4 0 -11 37 -12 44 0 8 12 -34 48 -78 66 -27 11 -65 15 -134
14 -54 -1 -110 3 -125 10 -37 14 -40 14 -33 -4z m29 -42 c-7 -2 -19 -2 -25 0
-7 3 -2 5 12 5 14 0 19 -2 13 -5z m250 -189 c3 -3 2 -14 -2 -23 -14 -26 -28
-62 -50 -124 l-21 -58 50 7 c31 4 50 3 50 -3 0 -6 -26 -13 -58 -16 -32 -4 -67
-9 -78 -12 -17 -6 -18 -5 -2 7 12 10 88 204 88 225 0 5 17 3 23 -3z m-145 -34
c5 -33 -28 -211 -38 -205 -4 3 -4 22 1 42 12 54 12 53 -24 53 -30 0 -36 -5
-52 -40 -28 -63 -46 -50 -19 14 6 16 4 18 -14 14 -12 -4 -22 -2 -22 3 0 5 11
9 24 9 22 0 66 44 66 66 0 16 52 75 63 71 7 -2 14 -14 15 -27z"/>
<path d="M290 668 c-8 -13 -22 -38 -32 -55 l-18 -33 29 0 c16 0 31 6 33 13 6
16 11 97 6 97 -2 0 -10 -10 -18 -22z"/>
<path d="M940 948 c-14 -6 -71 -10 -127 -9 -108 2 -155 -11 -197 -58 -18 -20
-18 -21 5 -30 13 -5 18 -10 12 -10 -10 -1 -13 -63 -13 -276 0 -249 2 -275 16
-275 9 0 106 16 215 35 110 19 201 35 204 35 3 0 5 126 5 281 0 262 -1 280
-17 275 -36 -10 -154 -28 -159 -24 -2 3 30 11 73 19 57 10 70 14 46 17 -23 2
-30 7 -26 18 6 16 -2 17 -37 2z m-135 -75 c-38 -7 -77 -12 -85 -10 -8 2 11 7
43 11 31 5 59 12 62 16 3 5 15 5 28 2 16 -4 2 -10 -48 -19z m-112 -20 c-7 -2
-21 -2 -30 0 -10 3 -4 5 12 5 17 0 24 -2 18 -5z"/>
<path d="M573 843 c9 -2 23 -2 30 0 6 3 -1 5 -18 5 -16 0 -22 -2 -12 -5z"/>
<path d="M562 548 c3 -275 4 -283 23 -283 19 0 20 8 23 283 l2 282 -25 0 -25
0 2 -282z"/>
</g>
</svg>
